<svg width="35" height="35" viewBox="0 0 35 35" fill="none" xmlns="http://www.w3.org/2000/svg">
<g filter="url(#filter0_d)">
<rect x="4" width="27" height="27" rx="5" fill="#073030"/>
</g>
<path d="M15.5208 16.9429H16.0417V13.5571H15.5208C15.2332 13.5571 15 13.3473 15 13.0884V11.9688C15 11.7099 15.2332 11.5 15.5208 11.5H18.4375C18.7252 11.5 18.9583 11.7099 18.9583 11.9688V16.9429H19.4792C19.7668 16.9429 20 17.1527 20 17.4116V18.5312C20 18.7901 19.7668 19 19.4792 19H15.5208C15.2332 19 15 18.7901 15 18.5312V17.4116C15 17.1527 15.2332 16.9429 15.5208 16.9429ZM17.5 7C16.4645 7 15.625 7.75551 15.625 8.6875C15.625 9.61949 16.4645 10.375 17.5 10.375C18.5355 10.375 19.375 9.61949 19.375 8.6875C19.375 7.75551 18.5355 7 17.5 7Z" fill="white"/>
<defs>
<filter id="filter0_d" x="0" y="0" width="35" height="35" filterUnits="userSpaceOnUse" color-interpolation-filters="sRGB">
<feFlood flood-opacity="0" result="BackgroundImageFix"/>
<feColorMatrix in="SourceAlpha" type="matrix" values="0 0 0 0 0 0 0 0 0 0 0 0 0 0 0 0 0 0 127 0"/>
<feOffset dy="4"/>
<feGaussianBlur stdDeviation="2"/>
<feColorMatrix type="matrix" values="0 0 0 0 0 0 0 0 0 0 0 0 0 0 0 0 0 0 0.04 0"/>
<feBlend mode="normal" in2="BackgroundImageFix" result="effect1_dropShadow"/>
<feBlend mode="normal" in="SourceGraphic" in2="effect1_dropShadow" result="shape"/>
</filter>
</defs>
</svg>
