<svg width="16" height="16" viewBox="0 0 16 16" fill="none" xmlns="http://www.w3.org/2000/svg">
<path d="M13.3238 0L15.8238 2.5L13.918 4.40667L11.418 1.90667L13.3238 0Z" fill="#073030"/>
<path d="M4.16602 11.6567H6.66602L12.7385 5.58423L10.2385 3.08423L4.16602 9.15673V11.6567Z" fill="#073030"/>
<path d="M13.3333 14.1567H4.29833C4.27667 14.1567 4.25417 14.165 4.2325 14.165C4.205 14.165 4.1775 14.1575 4.14917 14.1567H1.66667V2.49003H7.3725L9.03917 0.823364H1.66667C0.7475 0.823364 0 1.57003 0 2.49003V14.1567C0 15.0767 0.7475 15.8234 1.66667 15.8234H13.3333C13.7754 15.8234 14.1993 15.6478 14.5118 15.3352C14.8244 15.0226 15 14.5987 15 14.1567V6.93336L13.3333 8.60003V14.1567Z" fill="#073030"/>
</svg>
