<svg width="14" height="17" viewBox="0 0 14 17" fill="none" xmlns="http://www.w3.org/2000/svg">
<path d="M3.57376 10.6194C3.41966 10.6194 3.31581 10.6345 3.26221 10.6496V11.6361C3.32586 11.6512 3.40542 11.6554 3.51513 11.6554C3.91629 11.6554 4.16336 11.4527 4.16336 11.1102C4.16336 10.8037 3.95063 10.6194 3.57376 10.6194ZM6.49412 10.6295C6.32662 10.6295 6.21774 10.6445 6.15326 10.6596V12.8455C6.21774 12.8606 6.32159 12.8606 6.41539 12.8606C7.09963 12.8656 7.54518 12.4887 7.54518 11.6914C7.55021 10.9963 7.14402 10.6295 6.49412 10.6295Z" fill="#C0C0C0"/>
<path d="M8.375 0H1.675C1.23076 0 0.804719 0.176473 0.490596 0.490596C0.176473 0.804719 0 1.23076 0 1.675V15.075C0 15.5192 0.176473 15.9453 0.490596 16.2594C0.804719 16.5735 1.23076 16.75 1.675 16.75H11.725C12.1692 16.75 12.5953 16.5735 12.9094 16.2594C13.2235 15.9453 13.4 15.5192 13.4 15.075V5.025L8.375 0ZM4.60458 11.8841C4.34579 12.127 3.96389 12.2359 3.51917 12.2359C3.43295 12.2368 3.34676 12.2318 3.26122 12.2208V13.4151H2.5125V10.1187C2.85039 10.0683 3.19181 10.0453 3.53341 10.05C3.9999 10.05 4.33155 10.1388 4.55516 10.3172C4.76789 10.4863 4.91194 10.7635 4.91194 11.0902C4.9111 11.4185 4.80223 11.6957 4.60458 11.8841ZM7.79294 13.0189C7.44119 13.3112 6.90602 13.4502 6.25194 13.4502C5.85999 13.4502 5.58277 13.4251 5.39434 13.4V10.1195C5.73235 10.0702 6.07367 10.0469 6.41525 10.05C7.04924 10.05 7.46129 10.1639 7.78289 10.4068C8.13045 10.6647 8.3482 11.0759 8.3482 11.6664C8.3482 12.3054 8.11454 12.7467 7.79294 13.0189ZM10.8875 10.6949H9.60445V11.4578H10.8037V12.0726H9.60445V13.4159H8.84567V10.0751H10.8875V10.6949ZM8.375 5.8625H7.5375V1.675L11.725 5.8625H8.375Z" fill="#C0C0C0"/>
</svg>
