<svg width="77" height="27" viewBox="0 0 77 27" fill="none" xmlns="http://www.w3.org/2000/svg">
<path d="M13.2617 7.99609L8.4375 22H4.86328L0.0976562 7.99609H3.49609L6.41602 17.7422C6.57227 18.2695 6.66667 18.735 6.69922 19.1387H6.75781C6.80339 18.7025 6.9043 18.224 7.06055 17.7031L9.96094 7.99609H13.2617ZM14.1016 21.4629V18.3379C14.668 18.8132 15.2832 19.1712 15.9473 19.4121C16.6113 19.6465 17.2819 19.7637 17.959 19.7637C18.3561 19.7637 18.7012 19.7279 18.9941 19.6562C19.2936 19.5846 19.541 19.487 19.7363 19.3633C19.9382 19.2331 20.0879 19.0833 20.1855 18.9141C20.2832 18.7383 20.332 18.5495 20.332 18.3477C20.332 18.0742 20.2539 17.8301 20.0977 17.6152C19.9414 17.4004 19.7266 17.2018 19.4531 17.0195C19.1862 16.8372 18.8672 16.6615 18.4961 16.4922C18.125 16.3229 17.7246 16.1504 17.2949 15.9746C16.2012 15.5189 15.3841 14.9622 14.8438 14.3047C14.3099 13.6471 14.043 12.8529 14.043 11.9219C14.043 11.1927 14.1895 10.5677 14.4824 10.0469C14.7754 9.51953 15.1725 9.08659 15.6738 8.74805C16.1816 8.40951 16.7676 8.16211 17.4316 8.00586C18.0957 7.8431 18.7988 7.76172 19.541 7.76172C20.2702 7.76172 20.9147 7.80729 21.4746 7.89844C22.041 7.98307 22.5618 8.11654 23.0371 8.29883V11.2188C22.8027 11.056 22.5456 10.9128 22.2656 10.7891C21.9922 10.6654 21.709 10.5645 21.416 10.4863C21.123 10.4017 20.8301 10.3398 20.5371 10.3008C20.2507 10.2617 19.9772 10.2422 19.7168 10.2422C19.3587 10.2422 19.0332 10.278 18.7402 10.3496C18.4473 10.4147 18.1999 10.5091 17.998 10.6328C17.7962 10.7565 17.64 10.9062 17.5293 11.082C17.4186 11.2513 17.3633 11.4434 17.3633 11.6582C17.3633 11.8926 17.4251 12.1042 17.5488 12.293C17.6725 12.4753 17.8483 12.651 18.0762 12.8203C18.304 12.9831 18.5807 13.1458 18.9062 13.3086C19.2318 13.4648 19.5996 13.6276 20.0098 13.7969C20.5697 14.0312 21.071 14.2819 21.5137 14.5488C21.9629 14.8092 22.347 15.1055 22.666 15.4375C22.985 15.7695 23.2292 16.1504 23.3984 16.5801C23.5677 17.0033 23.6523 17.498 23.6523 18.0645C23.6523 18.8457 23.5026 19.5033 23.2031 20.0371C22.9102 20.5645 22.5098 20.9941 22.002 21.3262C21.4941 21.6517 20.9017 21.8861 20.2246 22.0293C19.554 22.1725 18.8444 22.2441 18.0957 22.2441C17.3275 22.2441 16.5951 22.179 15.8984 22.0488C15.2083 21.9186 14.6094 21.7233 14.1016 21.4629ZM38.2715 22H34.834L33.8379 18.8848H28.8574L27.8711 22H24.4531L29.5508 7.99609H33.291L38.2715 22ZM33.1152 16.4629L31.6113 11.7559C31.5007 11.4043 31.4225 10.9844 31.377 10.4961H31.2988C31.2663 10.9062 31.1849 11.3132 31.0547 11.7168L29.5312 16.4629H33.1152ZM48.4473 10.5645H44.4531V22H41.2891V10.5645H37.3145V7.99609H48.4473V10.5645Z" fill="#49ADAD"/>
<path d="M55.3322 15.3926C54.5478 17.7416 55.1778 20.3323 56.9532 22.0589C58.1345 23.2586 59.7294 23.9619 61.4119 24.0248C62.1621 24.0505 62.9103 23.9342 63.6173 23.6821C61.9535 23.5323 59.9651 22.5167 58.2312 20.7824C56.4973 19.0482 55.4809 17.0556 55.3322 15.3926Z" fill="#49ADAD"/>
<path d="M73.0984 5.92078C71.2308 4.05137 68.6968 3.00069 66.0544 3C63.4119 2.99931 60.8774 4.04866 59.0088 5.91709C58.7208 6.20539 58.7211 6.67257 59.0094 6.96057C59.2977 7.24856 59.7648 7.24831 60.0528 6.96001C63.3669 3.6467 68.7394 3.64728 72.0527 6.96131C75.366 10.2753 75.3654 15.6479 72.0514 18.9612C71.8596 19.1464 71.7827 19.4207 71.8502 19.6787C71.9177 19.9367 72.1192 20.1381 72.3771 20.2057C72.6351 20.2732 72.9094 20.1963 73.0947 20.0045C76.9837 16.1159 76.9853 9.81136 73.0984 5.92078Z" fill="#49ADAD"/>
<path d="M71.0111 8.00662C69.6969 6.6912 67.9138 5.9519 66.0544 5.95142C64.1949 5.95093 62.4115 6.68931 61.0966 8.00403C60.8085 8.29284 60.809 8.76052 61.0978 9.04862C61.3867 9.33671 61.8543 9.33613 62.1424 9.04732C64.3135 6.94557 67.7692 6.97405 69.9053 9.1113C72.0415 11.2486 72.0681 14.7042 69.9653 16.8742C69.6772 17.1624 69.6772 17.6296 69.9654 17.9177C70.2536 18.2058 70.7208 18.2057 71.0089 17.9175C73.7456 15.181 73.7466 10.7443 71.0111 8.00662Z" fill="#49ADAD"/>
<path d="M68.9222 10.0924C68.1611 9.33123 67.1288 8.90356 66.0524 8.90356C64.976 8.90356 63.9437 9.33123 63.1826 10.0924C62.8946 10.3807 62.8949 10.8479 63.1832 11.1359C63.4715 11.4239 63.9387 11.4237 64.2267 11.1354C64.8791 10.483 65.83 10.2282 66.7212 10.467C67.6124 10.7058 68.3085 11.4019 68.5473 12.2931C68.7861 13.1843 68.5313 14.1352 67.8789 14.7876C67.6871 14.9729 67.6102 15.2472 67.6777 15.5052C67.7452 15.7631 67.9467 15.9646 68.2047 16.0321C68.4626 16.0996 68.737 16.0227 68.9222 15.8309C70.5064 14.2462 70.5064 11.6775 68.9222 10.0928V10.0924Z" fill="#49ADAD"/>
<path d="M66.0504 11.4851C65.5205 11.4822 65.0303 11.7652 64.7677 12.2254C64.5051 12.6857 64.511 13.2517 64.7832 13.7064L63.3573 15.1322C61.7057 13.5828 59.7759 12.6974 58.3124 12.6974C57.7017 12.6643 57.1034 12.8783 56.6523 13.2913C55.332 14.612 56.293 17.8039 58.7503 20.262C61.2077 22.72 64.4006 23.6803 65.7228 22.3596C66.3452 21.7376 66.4902 20.6895 66.1316 19.4083C65.6865 17.9979 64.9147 16.7126 63.879 15.6568L65.3067 14.2291C65.8421 14.5429 66.5167 14.4875 66.9937 14.0905C67.4708 13.6936 67.6478 13.0402 67.4366 12.4567C67.2253 11.8732 66.671 11.4847 66.0504 11.4851ZM66.572 13.4824C66.2802 13.7613 65.8206 13.7613 65.5288 13.4824C65.3177 13.2714 65.2545 12.9541 65.3687 12.6783C65.4829 12.4026 65.752 12.2228 66.0504 12.2228C66.3488 12.2228 66.6179 12.4026 66.7321 12.6783C66.8463 12.9541 66.7831 13.2714 66.572 13.4824Z" fill="#49ADAD"/>
</svg>
