<svg width="58" height="58" viewBox="0 0 58 58" fill="none" xmlns="http://www.w3.org/2000/svg">
<circle cx="29" cy="29" r="29" fill="#DB4540"/>
<path fill-rule="evenodd" clip-rule="evenodd" d="M16.1209 18.1209C14.9493 19.2925 14.9493 21.1919 16.1209 22.3635L24.6065 30.8491L16.1209 39.3347C14.9493 40.5063 14.9493 42.4058 16.1209 43.5774C17.2924 44.749 19.1919 44.749 20.3635 43.5774L28.8491 35.0918L37.3341 43.5767C38.5056 44.7483 40.4051 44.7483 41.5767 43.5767C42.7483 42.4052 42.7483 40.5057 41.5767 39.3341L33.0918 30.8491L41.5767 22.3642C42.7483 21.1926 42.7483 19.2931 41.5767 18.1215C40.4051 16.95 38.5056 16.95 37.3341 18.1215L28.8491 26.6065L20.3635 18.1209C19.1919 16.9493 17.2924 16.9493 16.1209 18.1209Z" fill="white"/>
</svg>
