<svg xmlns="http://www.w3.org/2000/svg" width="206.105" height="154.579" viewBox="0 0 206.105 154.579">
  <path id="Icon_awesome-image" data-name="Icon awesome-image" d="M186.783,159.079H19.322A19.322,19.322,0,0,1,0,139.756V23.822A19.322,19.322,0,0,1,19.322,4.5h167.46A19.322,19.322,0,0,1,206.1,23.822V139.756A19.322,19.322,0,0,1,186.783,159.079ZM45.085,27.043A22.543,22.543,0,1,0,67.628,49.585,22.543,22.543,0,0,0,45.085,27.043ZM25.763,133.316H180.342V88.23L145.113,53a4.831,4.831,0,0,0-6.832,0L83.73,107.552,61.383,85.2a4.831,4.831,0,0,0-6.832,0L25.763,113.993Z" transform="translate(0 -4.5)" fill="#2c3280"/>
</svg>
