
<svg height="20" width="20" viewBox="0 0 15 16" fill="none" xmlns="http://www.w3.org/2000/svg">
<path d="M0.0511761 14.6522L1.29396 12.5807C1.86793 11.6245 2.17122 10.5293 2.17122 9.41468V7.60007C2.17122 5.30919 3.69992 3.37155 5.79031 2.74688V1.44764C5.79031 0.649263 6.43957 0 7.23795 0C8.03633 0 8.6856 0.649263 8.6856 1.44764V2.74688C10.776 3.37155 12.3047 5.30919 12.3047 7.60007V9.41468C12.3047 10.5293 12.6079 11.6238 13.1812 12.5799L14.424 14.6515C14.4913 14.7637 14.4928 14.9027 14.4283 15.0163C14.3639 15.1299 14.2445 15.2002 14.1142 15.2002H0.361693C0.231406 15.2002 0.111264 15.13 0.046833 15.0171C-0.0175972 14.9041 -0.0154266 14.7637 0.0511761 14.6522Z" fill="#2C3280"/>
</svg>

