<svg xmlns="http://www.w3.org/2000/svg" width="232.067" height="154.711" viewBox="0 0 232.067 154.711">
  <path id="Icon_awesome-newspaper" data-name="Icon awesome-newspaper" d="M222.4,4.5H35.455a9.669,9.669,0,0,0-9.669,9.669v3.223H9.669A9.669,9.669,0,0,0,0,27.062V136.649a22.562,22.562,0,0,0,22.562,22.562H212.728a19.339,19.339,0,0,0,19.339-19.339V14.169A9.669,9.669,0,0,0,222.4,4.5ZM22.562,139.872a3.223,3.223,0,0,1-3.223-3.223V36.732h6.446v99.918A3.223,3.223,0,0,1,22.562,139.872Zm95.083-6.446H56.405a4.835,4.835,0,0,1-4.835-4.835v-3.223a4.835,4.835,0,0,1,4.835-4.835h61.24a4.835,4.835,0,0,1,4.835,4.835v3.223A4.835,4.835,0,0,1,117.645,133.426Zm83.8,0h-61.24a4.835,4.835,0,0,1-4.835-4.835v-3.223a4.835,4.835,0,0,1,4.835-4.835h61.24a4.835,4.835,0,0,1,4.835,4.835v3.223A4.835,4.835,0,0,1,201.447,133.426Zm-83.8-38.678H56.405a4.835,4.835,0,0,1-4.835-4.835V86.69a4.835,4.835,0,0,1,4.835-4.835h61.24a4.835,4.835,0,0,1,4.835,4.835v3.223A4.835,4.835,0,0,1,117.645,94.748Zm83.8,0h-61.24a4.835,4.835,0,0,1-4.835-4.835V86.69a4.835,4.835,0,0,1,4.835-4.835h61.24a4.835,4.835,0,0,1,4.835,4.835v3.223A4.835,4.835,0,0,1,201.447,94.748Zm0-38.678H56.405a4.835,4.835,0,0,1-4.835-4.835V35.12a4.835,4.835,0,0,1,4.835-4.835H201.447a4.835,4.835,0,0,1,4.835,4.835V51.236A4.835,4.835,0,0,1,201.447,56.07Z" transform="translate(0 -4.5)" fill="#2c3280"/>
</svg>
