<svg width="16" height="20" viewBox="0 0 16 20" fill="none" xmlns="http://www.w3.org/2000/svg">
<path d="M14 20H2C1.46957 20 0.960859 19.7893 0.585786 19.4142C0.210714 19.0392 0 18.5305 0 18V2.00003C0 1.46959 0.210714 0.960885 0.585786 0.585812C0.960859 0.210739 1.46957 2.54321e-05 2 2.54321e-05H9C9.00896 -0.0011478 9.01804 -0.0011478 9.027 2.54321e-05H9.033C9.04245 0.00297711 9.05216 0.00498694 9.062 0.00602547C9.15 0.0120255 9.237 0.0290254 9.321 0.0570254H9.363C9.38146 0.0699443 9.39884 0.0843238 9.415 0.100025C9.52393 0.148468 9.6232 0.216227 9.708 0.300025L15.708 6.30003C15.7918 6.38481 15.8596 6.48408 15.908 6.59303C15.9167 6.61465 15.9244 6.63667 15.931 6.65903L15.941 6.68703C15.969 6.77003 15.985 6.85703 15.99 6.94502C15.9909 6.95499 15.9932 6.96476 15.997 6.97403V6.98002C15.9986 6.98659 15.9996 6.99328 16 7.00003V18C16 18.5305 15.7893 19.0392 15.4142 19.4142C15.0391 19.7893 14.5304 20 14 20ZM10.424 12V17H11.364V14.96H12.824V14.122H11.364V12.841H13V12H10.424ZM6.724 12V17H7.93C8.436 17.025 8.926 16.819 9.262 16.44C9.6069 15.9999 9.77967 15.4493 9.748 14.891V14.081C9.77126 13.5286 9.59364 12.9865 9.248 12.555C8.923 12.185 8.448 11.981 7.955 12H6.724ZM3 12V17H3.94V15.241H4.566C4.984 15.264 5.392 15.109 5.69 14.815C5.974 14.497 6.121 14.081 6.1 13.655C6.11856 13.2193 5.97135 12.7926 5.688 12.461C5.54958 12.3075 5.37889 12.1866 5.18818 12.1069C4.99747 12.0272 4.79148 11.9907 4.585 12H3ZM9 2.00003V7.00003H14L9 2.00003ZM7.946 16.162H7.664V12.841H8.006C8.12552 12.834 8.24489 12.857 8.3532 12.908C8.46152 12.959 8.55531 13.0364 8.626 13.133C8.773 13.436 8.836 13.773 8.808 14.109V14.978C8.83 15.298 8.761 15.618 8.608 15.899C8.52726 15.9933 8.42481 16.0665 8.30948 16.1123C8.19415 16.1581 8.0694 16.1752 7.946 16.162ZM4.585 14.4H3.939V12.841H4.594C4.67444 12.8419 4.75334 12.8632 4.82331 12.9029C4.89327 12.9426 4.952 12.9994 4.994 13.068C5.102 13.247 5.154 13.453 5.144 13.662C5.15654 13.8565 5.1049 14.0497 4.997 14.212C4.94797 14.2736 4.8851 14.3227 4.81351 14.3553C4.74191 14.388 4.66362 14.4033 4.585 14.4Z" fill="#406D96"/>
</svg>
