<svg width="919" height="171" viewBox="0 0 919 171" fill="none" xmlns="http://www.w3.org/2000/svg">
<path d="M102.05 120.9C109.25 120.9 115.25 120 120.05 118.2C125.05 116.4 130.45 113.3 136.25 108.9L171.65 144.6C155.25 162.2 131.35 171 99.9496 171C80.1496 171 62.7496 167.4 47.7496 160.2C32.7496 152.8 21.1496 142.6 12.9496 129.6C4.74961 116.6 0.64961 102 0.64961 85.8C0.64961 69.4 4.74961 54.8 12.9496 42C21.1496 29 32.3496 18.9 46.5496 11.7C60.9496 4.49999 77.0496 0.899988 94.8496 0.899988C111.05 0.899988 125.95 4.19999 139.55 10.8C153.15 17.2 163.95 26.8 171.95 39.6C179.95 52.2 183.95 67.3 183.95 84.9L71.7496 106.5C76.7496 116.1 86.8496 120.9 102.05 120.9ZM95.1496 47.1C87.3496 47.1 80.9496 49.4 75.9496 54C71.1496 58.6 68.2496 65.4 67.2496 74.4L119.75 64.2C117.95 59 114.85 54.9 110.45 51.9C106.25 48.7 101.15 47.1 95.1496 47.1ZM299.846 21.6C311.846 7.79999 329.546 0.899988 352.946 0.899988V60.9C347.546 60.1 342.546 59.7 337.946 59.7C314.746 59.7 303.146 71.5 303.146 95.1V168H235.346V3.89998H299.846V21.6ZM466.662 21.6C478.662 7.79999 496.362 0.899988 519.762 0.899988V60.9C514.362 60.1 509.362 59.7 504.762 59.7C481.562 59.7 469.962 71.5 469.962 95.1V168H402.162V3.89998H466.662V21.6ZM654.214 171C636.014 171 619.614 167.4 605.014 160.2C590.614 152.8 579.314 142.7 571.114 129.9C562.914 116.9 558.814 102.2 558.814 85.8C558.814 69.4 562.914 54.8 571.114 42C579.314 29 590.614 18.9 605.014 11.7C619.614 4.49999 636.014 0.899988 654.214 0.899988C672.614 0.899988 689.014 4.49999 703.414 11.7C718.014 18.9 729.314 29 737.314 42C745.514 54.8 749.614 69.4 749.614 85.8C749.614 102.2 745.514 116.9 737.314 129.9C729.314 142.7 718.014 152.8 703.414 160.2C689.014 167.4 672.614 171 654.214 171ZM654.214 118.2C662.014 118.2 668.414 115.4 673.414 109.8C678.414 104 680.914 96 680.914 85.8C680.914 75.6 678.414 67.7 673.414 62.1C668.414 56.5 662.014 53.7 654.214 53.7C646.414 53.7 640.014 56.5 635.014 62.1C630.014 67.7 627.514 75.6 627.514 85.8C627.514 96 630.014 104 635.014 109.8C640.014 115.4 646.414 118.2 654.214 118.2ZM865.334 21.6C877.334 7.79999 895.034 0.899988 918.434 0.899988V60.9C913.034 60.1 908.034 59.7 903.434 59.7C880.234 59.7 868.634 71.5 868.634 95.1V168H800.834V3.89998H865.334V21.6Z" fill="#F3F3F3"/>
</svg>
