<svg width="14" height="13" viewBox="0 0 14 13" fill="none" xmlns="http://www.w3.org/2000/svg">
<path d="M2.97 8.66667L1.61778 9.72901C0.961647 10.2445 0 9.77707 0 8.94267V0.666667C0 0.489856 0.0702379 0.320286 0.195262 0.195262C0.320286 0.0702379 0.489856 0 0.666667 0H10.6667C10.8435 0 11.013 0.0702379 11.1381 0.195262C11.2631 0.320286 11.3333 0.489856 11.3333 0.666667V8.66667H2.97ZM2.50867 7.33333H10V1.33333H1.33333V8.25667L2.50867 7.33333ZM4.66667 10H11.4913L12.6667 10.9233V4H13.3333C13.5101 4 13.6797 4.07024 13.8047 4.19526C13.9298 4.32029 14 4.48986 14 4.66667V11.6093C14 12.4437 13.0384 12.9112 12.3822 12.3957L11.03 11.3333H5.33333C5.15652 11.3333 4.98695 11.2631 4.86193 11.1381C4.7369 11.013 4.66667 10.8435 4.66667 10.6667V10Z" fill="#A5A5A5"/>
</svg>
