<svg xmlns="http://www.w3.org/2000/svg" width="25" height="25" viewBox="0 0 35 35">
  <path id="filter" d="M31.75,2H7.25A5.25,5.25,0,0,0,2,7.25V9.3a5.25,5.25,0,0,0,.438,2.1v.1A4.918,4.918,0,0,0,3.47,13.007l10.78,10.71V35.25a1.742,1.742,0,0,0,2.538,1.557l7-3.5a1.75,1.75,0,0,0,.962-1.557V23.717l10.71-10.71a4.918,4.918,0,0,0,1.033-1.5V11.4A5.25,5.25,0,0,0,37,9.3V7.25A5.25,5.25,0,0,0,31.75,2ZM21.757,21.757A1.75,1.75,0,0,0,21.25,23v7.665l-3.5,1.75V23a1.75,1.75,0,0,0-.508-1.242L7.967,12.5H31.032ZM33.5,9H5.5V7.25A1.75,1.75,0,0,1,7.25,5.5h24.5A1.75,1.75,0,0,1,33.5,7.25Z" transform="translate(-2 -2)" fill="#2c3280"/>
</svg>
