<svg width="19" height="19" viewBox="0 0 19 19" fill="none" xmlns="http://www.w3.org/2000/svg">
<path d="M3.12446 1.05566C2.98448 1.05566 2.85024 1.11127 2.75126 1.21025C2.65228 1.30922 2.59668 1.44347 2.59668 1.58344V17.4168C2.59668 17.5568 2.65228 17.691 2.75126 17.79C2.85024 17.8889 2.98448 17.9446 3.12446 17.9446C3.26443 17.9446 3.39867 17.8889 3.49765 17.79C3.59663 17.691 3.65223 17.5568 3.65223 17.4168V1.58344C3.65223 1.44347 3.59663 1.30922 3.49765 1.21025C3.39867 1.11127 3.26443 1.05566 3.12446 1.05566Z" fill="#C42127"/>
<path d="M16.0972 2.01622C16.017 1.9699 15.926 1.94551 15.8333 1.94551C15.7407 1.94551 15.6497 1.9699 15.5694 2.01622C14.5463 2.44631 13.4437 2.65496 12.3342 2.62844C11.3782 2.5585 10.4473 2.29071 9.60028 1.84205C8.78569 1.40194 7.88921 1.13426 6.96667 1.05566C6.20532 1.05649 5.45176 1.209 4.75 1.50428V10.5557C5.43761 10.1794 6.20925 9.98335 6.99306 9.98567C7.76922 10.0627 8.52253 10.2922 9.20972 10.6612C10.1915 11.1739 11.2708 11.4725 12.3764 11.5373C13.6454 11.5637 14.9054 11.3171 16.0708 10.8143C16.1579 10.7704 16.2311 10.7033 16.2823 10.6204C16.3335 10.5375 16.3608 10.442 16.3611 10.3446V2.46483C16.3596 2.37363 16.3346 2.28436 16.2883 2.20573C16.2421 2.12711 16.1762 2.06182 16.0972 2.01622Z" fill="#C42127"/>
</svg>
