<svg width="122" height="194" viewBox="0 0 122 194" fill="none" xmlns="http://www.w3.org/2000/svg">
<mask id="path-1-inside-1" fill="white">
<path fill-rule="evenodd" clip-rule="evenodd" d="M1 60C1 26.8629 27.8629 0 61 0C94.1371 0 121 26.8629 121 60V181.344C120.952 181.235 120.882 181.132 120.793 181.043L111.457 171.707C111.067 171.317 110.433 171.317 110.043 171.707L100.75 181L91.4571 171.707C91.0666 171.317 90.4334 171.317 90.0429 171.707L80.75 181L71.4571 171.707C71.0666 171.317 70.4334 171.317 70.0429 171.707L60.75 181L51.4571 171.707C51.0666 171.317 50.4334 171.317 50.0429 171.707L40.75 181L31.4571 171.707C31.0666 171.317 30.4334 171.317 30.0429 171.707L20.75 181L11.4571 171.707C11.0666 171.317 10.4334 171.317 10.0429 171.707L1 180.75V60Z"/>
</mask>
<path fill-rule="evenodd" clip-rule="evenodd" d="M1 60C1 26.8629 27.8629 0 61 0C94.1371 0 121 26.8629 121 60V181.344C120.952 181.235 120.882 181.132 120.793 181.043L111.457 171.707C111.067 171.317 110.433 171.317 110.043 171.707L100.75 181L91.4571 171.707C91.0666 171.317 90.4334 171.317 90.0429 171.707L80.75 181L71.4571 171.707C71.0666 171.317 70.4334 171.317 70.0429 171.707L60.75 181L51.4571 171.707C51.0666 171.317 50.4334 171.317 50.0429 171.707L40.75 181L31.4571 171.707C31.0666 171.317 30.4334 171.317 30.0429 171.707L20.75 181L11.4571 171.707C11.0666 171.317 10.4334 171.317 10.0429 171.707L1 180.75V60Z" fill="white"/>
<path d="M121 181.344L119.172 182.155L123 181.344H121ZM111.457 171.707L112.871 170.293L112.871 170.293L111.457 171.707ZM110.043 171.707L108.629 170.293L108.629 170.293L110.043 171.707ZM100.75 181L99.3358 182.414L100.75 183.828L102.164 182.414L100.75 181ZM91.4571 171.707L92.8713 170.293L92.8713 170.293L91.4571 171.707ZM90.0429 171.707L88.6287 170.293L88.6287 170.293L90.0429 171.707ZM80.75 181L79.3358 182.414L80.75 183.828L82.1642 182.414L80.75 181ZM71.4571 171.707L72.8713 170.293L72.8713 170.293L71.4571 171.707ZM70.0429 171.707L68.6287 170.293L68.6287 170.293L70.0429 171.707ZM60.75 181L59.3358 182.414L60.75 183.828L62.1642 182.414L60.75 181ZM51.4571 171.707L52.8713 170.293L52.8713 170.293L51.4571 171.707ZM50.0429 171.707L48.6287 170.293L48.6287 170.293L50.0429 171.707ZM40.75 181L39.3358 182.414L40.75 183.828L42.1642 182.414L40.75 181ZM31.4571 171.707L32.8713 170.293L32.8713 170.293L31.4571 171.707ZM30.0429 171.707L28.6287 170.293L28.6287 170.293L30.0429 171.707ZM20.75 181L19.3358 182.414L20.75 183.828L22.1642 182.414L20.75 181ZM11.4571 171.707L12.8713 170.293L12.8713 170.293L11.4571 171.707ZM10.0429 171.707L8.62869 170.293L8.62868 170.293L10.0429 171.707ZM1 180.75H-1V185.578L2.41421 182.164L1 180.75ZM61 -2C26.7583 -2 -1 25.7583 -1 60H3C3 27.9675 28.9675 2 61 2V-2ZM123 60C123 25.7583 95.2417 -2 61 -2V2C93.0325 2 119 27.9675 119 60H123ZM123 181.344V60H119V181.344H123ZM119.379 182.457C119.292 182.37 119.222 182.267 119.172 182.155L122.828 180.533C122.681 180.202 122.473 179.895 122.207 179.629L119.379 182.457ZM110.043 173.121L119.379 182.457L122.207 179.629L112.871 170.293L110.043 173.121ZM111.457 173.121C111.067 173.512 110.433 173.512 110.043 173.121L112.871 170.293C111.7 169.121 109.8 169.121 108.629 170.293L111.457 173.121ZM102.164 182.414L111.457 173.121L108.629 170.293L99.3358 179.586L102.164 182.414ZM90.0429 173.121L99.3358 182.414L102.164 179.586L92.8713 170.293L90.0429 173.121ZM91.4571 173.121C91.0666 173.512 90.4334 173.512 90.0429 173.121L92.8713 170.293C91.6997 169.121 89.8003 169.121 88.6287 170.293L91.4571 173.121ZM82.1642 182.414L91.4571 173.121L88.6287 170.293L79.3358 179.586L82.1642 182.414ZM70.0429 173.121L79.3358 182.414L82.1642 179.586L72.8713 170.293L70.0429 173.121ZM71.4571 173.121C71.0666 173.512 70.4334 173.512 70.0429 173.121L72.8713 170.293C71.6997 169.121 69.8003 169.121 68.6287 170.293L71.4571 173.121ZM62.1642 182.414L71.4571 173.121L68.6287 170.293L59.3358 179.586L62.1642 182.414ZM50.0429 173.121L59.3358 182.414L62.1642 179.586L52.8713 170.293L50.0429 173.121ZM51.4571 173.121C51.0666 173.512 50.4334 173.512 50.0429 173.121L52.8713 170.293C51.6997 169.121 49.8003 169.121 48.6287 170.293L51.4571 173.121ZM42.1642 182.414L51.4571 173.121L48.6287 170.293L39.3358 179.586L42.1642 182.414ZM30.0429 173.121L39.3358 182.414L42.1642 179.586L32.8713 170.293L30.0429 173.121ZM31.4571 173.121C31.0666 173.512 30.4334 173.512 30.0429 173.121L32.8713 170.293C31.6997 169.121 29.8003 169.121 28.6287 170.293L31.4571 173.121ZM22.1642 182.414L31.4571 173.121L28.6287 170.293L19.3358 179.586L22.1642 182.414ZM10.0429 173.121L19.3358 182.414L22.1642 179.586L12.8713 170.293L10.0429 173.121ZM11.4571 173.121C11.0666 173.512 10.4334 173.512 10.0429 173.121L12.8713 170.293C11.6997 169.121 9.80026 169.121 8.62869 170.293L11.4571 173.121ZM2.41421 182.164L11.4571 173.121L8.62868 170.293L-0.414214 179.336L2.41421 182.164ZM-1 60V180.75H3V60H-1Z" fill="#AEAEAE" mask="url(#path-1-inside-1)"/>
<rect y="182.75" width="15.2028" height="15.2028" rx="1" transform="rotate(-45 0 182.75)" fill="white"/>
<rect x="40" y="182.75" width="15.2028" height="15.2028" rx="1" transform="rotate(-45 40 182.75)" fill="white"/>
<rect x="80" y="182.75" width="15.2028" height="15.2028" rx="1" transform="rotate(-45 80 182.75)" fill="white"/>
<rect x="20" y="182.75" width="15.2028" height="15.2028" rx="1" transform="rotate(-45 20 182.75)" fill="white"/>
<rect x="60" y="182.75" width="15.2028" height="15.2028" rx="1" transform="rotate(-45 60 182.75)" fill="white"/>
<rect x="100" y="182.75" width="15.2028" height="15.2028" rx="1" transform="rotate(-45 100 182.75)" fill="white"/>
<circle cx="34" cy="62" r="5" fill="#C4C4C4"/>
<circle cx="88" cy="62" r="5" fill="#C4C4C4"/>
<line x1="41" y1="93" x2="82" y2="93" stroke="#C4C4C4" stroke-width="2" stroke-linecap="round"/>
<path d="M47.4968 136.4H44.7068V140H37.8368V136.4H26.9468V131.9L35.8568 119H43.1168L35.1968 130.91H38.0468V127.7H44.7068V130.91H47.4968V136.4ZM60.9943 140.48C59.1343 140.48 57.4843 140.05 56.0443 139.19C54.6243 138.31 53.5043 137.05 52.6843 135.41C51.8843 133.75 51.4843 131.78 51.4843 129.5C51.4843 127.22 51.8843 125.26 52.6843 123.62C53.5043 121.96 54.6243 120.7 56.0443 119.84C57.4843 118.96 59.1343 118.52 60.9943 118.52C62.8543 118.52 64.4943 118.96 65.9143 119.84C67.3543 120.7 68.4743 121.96 69.2743 123.62C70.0943 125.26 70.5043 127.22 70.5043 129.5C70.5043 131.78 70.0943 133.75 69.2743 135.41C68.4743 137.05 67.3543 138.31 65.9143 139.19C64.4943 140.05 62.8543 140.48 60.9943 140.48ZM60.9943 134.81C62.5943 134.81 63.3943 133.04 63.3943 129.5C63.3943 125.96 62.5943 124.19 60.9943 124.19C59.3943 124.19 58.5943 125.96 58.5943 129.5C58.5943 133.04 59.3943 134.81 60.9943 134.81ZM95.6257 136.4H92.8357V140H85.9657V136.4H75.0757V131.9L83.9857 119H91.2457L83.3257 130.91H86.1757V127.7H92.8357V130.91H95.6257V136.4Z" fill="#C4C4C4"/>
</svg>
