<svg width="16" height="16" viewBox="0 0 16 16" fill="none" xmlns="http://www.w3.org/2000/svg">
<path d="M13.0473 12.3808C15.6507 9.77741 15.6507 5.55596 13.0473 2.95256C10.4439 0.349148 6.22247 0.349148 3.61906 2.95256C1.01565 5.55596 1.01565 9.77741 3.61906 12.3808M11.1616 10.4951C12.724 8.93306 12.724 6.40032 11.1616 4.83828C9.59956 3.2759 7.06682 3.2759 5.50478 4.83828C3.9424 6.40032 3.9424 8.93306 5.50478 10.4951" stroke="#2F3A56" stroke-width="1.5" stroke-linecap="round" stroke-linejoin="round"/>
<path d="M8.9165 7.66687C8.9165 7.82159 8.85504 7.96997 8.74563 8.07937L9.27596 8.6097L8.74563 8.07937C8.63623 8.18878 8.48785 8.25024 8.33313 8.25024C8.17841 8.25024 8.03003 8.18878 7.92062 8.07937L7.39029 8.6097L7.92062 8.07937C7.81122 7.96997 7.74976 7.82159 7.74976 7.66687C7.74976 7.51215 7.81122 7.36377 7.92062 7.25436C8.03003 7.14496 8.17841 7.0835 8.33313 7.0835C8.48785 7.0835 8.63623 7.14496 8.74563 7.25436L9.27596 6.72403L8.74563 7.25436C8.85504 7.36377 8.9165 7.51215 8.9165 7.66687Z" stroke="#2F3A56" stroke-width="1.5"/>
<path d="M8.33313 14.3337H6.99976M8.33313 9.00024C8.68676 9.00024 9.02591 8.85976 9.27596 8.6097C9.52602 8.35965 9.6665 8.0205 9.6665 7.66687C9.6665 7.31324 9.52602 6.97409 9.27596 6.72403C9.02591 6.47398 8.68676 6.3335 8.33313 6.3335C7.97949 6.3335 7.64035 6.47398 7.39029 6.72403C7.14024 6.97409 6.99976 7.31324 6.99976 7.66687C6.99976 8.0205 7.14024 8.35965 7.39029 8.6097C7.64035 8.85976 7.97949 9.00024 8.33313 9.00024ZM8.33313 9.00024V14.3337V9.00024ZM8.33313 14.3337H9.6665H8.33313Z" stroke="#2F3A56" stroke-width="1.5" stroke-linecap="round" stroke-linejoin="round"/>
</svg>
