<svg width="14" height="13" viewBox="0 0 14 13" fill="none" xmlns="http://www.w3.org/2000/svg">
<path fill-rule="evenodd" clip-rule="evenodd" d="M1.90909 0C1.40277 0 0.917184 0.201136 0.55916 0.55916C0.201136 0.917184 0 1.40277 0 1.90909V10.8182C0 11.3245 0.201136 11.8101 0.55916 12.1681C0.917184 12.5261 1.40277 12.7273 1.90909 12.7273H12.0909C12.5972 12.7273 13.0828 12.5261 13.4408 12.1681C13.7989 11.8101 14 11.3245 14 10.8182V1.90909C14 1.40277 13.7989 0.917184 13.4408 0.55916C13.0828 0.201136 12.5972 0 12.0909 0H1.90909ZM12.0909 1.27273H1.90909C1.74032 1.27273 1.57846 1.33977 1.45911 1.45911C1.33977 1.57846 1.27273 1.74032 1.27273 1.90909V3.81818H12.7273V1.90909C12.7273 1.74032 12.6602 1.57846 12.5409 1.45911C12.4215 1.33977 12.2597 1.27273 12.0909 1.27273ZM1.27273 10.8182V5.09091H12.7273V10.8182C12.7273 10.987 12.6602 11.1488 12.5409 11.2682C12.4215 11.3875 12.2597 11.4545 12.0909 11.4545H1.90909C1.74032 11.4545 1.57846 11.3875 1.45911 11.2682C1.33977 11.1488 1.27273 10.987 1.27273 10.8182Z" fill="#A5A5A5"/>
</svg>
