<svg width="321" height="321" viewBox="0 0 321 321" fill="none" xmlns="http://www.w3.org/2000/svg">
<g clip-path="url(#clip0)">
<path d="M51.213 175.001H224.998C233.282 175.001 239.998 168.285 239.998 160.001C239.998 151.717 233.282 145.001 224.998 145.001H51.213L70.607 125.607C76.465 119.749 76.465 110.252 70.607 104.394C64.75 98.536 55.252 98.536 49.394 104.394L4.39601 149.393C4.04501 149.744 3.71301 150.112 3.39901 150.496C3.26201 150.663 3.14301 150.84 3.01401 151.011C2.84901 151.231 2.67901 151.446 2.52601 151.675C2.38601 151.884 2.26501 152.101 2.13701 152.315C2.01401 152.521 1.88501 152.722 1.77201 152.934C1.65401 153.154 1.55501 153.38 1.44901 153.604C1.34501 153.823 1.23601 154.039 1.14301 154.263C1.05301 154.482 0.979007 154.705 0.900007 154.927C0.813007 155.167 0.721007 155.404 0.647007 155.649C0.580007 155.871 0.531007 156.096 0.475007 156.321C0.412007 156.57 0.342007 156.818 0.292007 157.072C0.241007 157.331 0.210007 157.593 0.173007 157.854C0.141007 158.077 0.0980071 158.297 0.0760071 158.523C0.0280071 159.007 0.00300708 159.494 0.00200708 159.98C0.00200708 159.987 0.00100708 159.995 0.00100708 160.002C0.00100708 160.009 0.00200708 160.017 0.00200708 160.024C0.00300708 160.511 0.0280071 160.997 0.0760071 161.482C0.0980071 161.705 0.140007 161.922 0.171007 162.143C0.209007 162.407 0.240007 162.671 0.292007 162.933C0.342007 163.185 0.411007 163.429 0.474007 163.676C0.531007 163.903 0.581007 164.132 0.649007 164.357C0.722007 164.598 0.813007 164.831 0.897007 165.067C0.978007 165.293 1.05201 165.52 1.14401 165.742C1.23501 165.962 1.34201 166.173 1.44401 166.388C1.55201 166.617 1.65401 166.848 1.77401 167.073C1.88401 167.278 2.00901 167.473 2.12801 167.672C2.25901 167.893 2.38401 168.116 2.52801 168.331C2.67401 168.55 2.83701 168.755 2.99401 168.966C3.13001 169.147 3.25601 169.334 3.40101 169.51C3.70001 169.874 4.01701 170.223 4.34801 170.558C4.36401 170.574 4.37701 170.592 4.39301 170.608L49.393 215.609C52.323 218.538 56.161 220.003 60 220.003C63.838 220.002 67.678 218.538 70.606 215.61C76.464 209.752 76.464 200.255 70.607 194.397L51.213 175.001Z" fill="rgb(44, 55, 128)"/>
<path d="M305.002 25H115.002C106.718 25 100.002 31.716 100.002 40V100C100.002 108.284 106.718 115 115.002 115C123.286 115 130.002 108.284 130.002 100V55H290.002V265.001H130.002V220C130.002 211.716 123.286 205 115.002 205C106.718 205 100.002 211.716 100.002 220V280.001C100.002 288.285 106.718 295.001 115.002 295.001H305.002C313.286 295.001 320.002 288.285 320.002 280.001V40C320.002 31.716 313.286 25 305.002 25Z" fill="rgb(44, 55, 128)"/>
</g>
<defs>
<clipPath id="clip0">
<rect width="320.002" height="320.002" fill="white"/>
</clipPath>
</defs>
</svg>
