<svg width="11" height="14" viewBox="0 0 11 14" fill="none" xmlns="http://www.w3.org/2000/svg">
<path d="M5.44338 14C4.46119 13.1622 3.55079 12.2437 2.72169 11.2542C1.47749 9.76816 6.83451e-07 7.55503 6.83451e-07 5.44611C-0.00053891 4.36907 0.318445 3.31607 0.916583 2.42039C1.51472 1.5247 2.36513 0.826592 3.36018 0.414403C4.35522 0.00221368 5.45019 -0.105524 6.50649 0.104825C7.56279 0.315174 8.53295 0.834154 9.29419 1.59609C9.80101 2.10065 10.2027 2.70073 10.4761 3.36159C10.7495 4.02244 10.889 4.73095 10.8868 5.44611C10.8868 7.55503 9.40928 9.76816 8.16508 11.2542C7.33597 12.2437 6.42557 13.1622 5.44338 14ZM5.44338 1.55798C4.41257 1.55922 3.42432 1.96925 2.69542 2.69815C1.96653 3.42705 1.55649 4.4153 1.55525 5.44611C1.55525 6.35282 1.96506 7.92285 3.91535 10.2565C4.39602 10.8304 4.90605 11.3791 5.44338 11.9004C5.98074 11.3797 6.49101 10.8318 6.9722 10.2588C8.92171 7.92207 9.33151 6.35205 9.33151 5.44611C9.33028 4.4153 8.92024 3.42705 8.19134 2.69815C7.46245 1.96925 6.4742 1.55922 5.44338 1.55798ZM5.44338 7.77899C4.82467 7.77899 4.23129 7.53321 3.79379 7.09571C3.35629 6.65821 3.11051 6.06483 3.11051 5.44611C3.11051 4.82739 3.35629 4.23402 3.79379 3.79652C4.23129 3.35902 4.82467 3.11323 5.44338 3.11323C6.0621 3.11323 6.65548 3.35902 7.09298 3.79652C7.53048 4.23402 7.77626 4.82739 7.77626 5.44611C7.77626 6.06483 7.53048 6.65821 7.09298 7.09571C6.65548 7.53321 6.0621 7.77899 5.44338 7.77899Z" fill="#2F3A56"/>
</svg>
