<svg width="18" height="28" viewBox="0 0 18 28" fill="none" xmlns="http://www.w3.org/2000/svg">
<path d="M9 12.5C9.79565 12.5 10.5587 12.1839 11.1213 11.6213C11.6839 11.0587 12 10.2956 12 9.5C12 8.70435 11.6839 7.94129 11.1213 7.37868C10.5587 6.81607 9.79565 6.5 9 6.5C8.20435 6.5 7.44129 6.81607 6.87868 7.37868C6.31607 7.94129 6 8.70435 6 9.5C6 10.2956 6.31607 11.0587 6.87868 11.6213C7.44129 12.1839 8.20435 12.5 9 12.5Z" fill="#C42127"/>
<path fill-rule="evenodd" clip-rule="evenodd" d="M18 9.5C17.9998 11.627 17.2464 13.6851 15.8736 15.3097C14.5008 16.9343 12.5971 18.0204 10.5 18.3755V26C10.5 26.3978 10.342 26.7794 10.0607 27.0607C9.77938 27.342 9.39785 27.5 9.00003 27.5C8.6022 27.5 8.22067 27.342 7.93937 27.0607C7.65806 26.7794 7.50003 26.3978 7.50003 26V18.3755C5.27993 17.9934 3.28374 16.7928 1.90555 15.0109C0.527346 13.2289 -0.132717 10.995 0.0556573 8.75013C0.244032 6.50527 1.26715 4.41261 2.92305 2.88523C4.57895 1.35786 6.74729 0.506781 9.00003 0.5C11.387 0.5 13.6762 1.44821 15.364 3.13604C17.0518 4.82387 18 7.11305 18 9.5ZM9.00003 15.5C10.5913 15.5 12.1174 14.8679 13.2427 13.7426C14.3679 12.6174 15 11.0913 15 9.5C15 7.9087 14.3679 6.38258 13.2427 5.25736C12.1174 4.13214 10.5913 3.5 9.00003 3.5C7.40873 3.5 5.88261 4.13214 4.75739 5.25736C3.63217 6.38258 3.00003 7.9087 3.00003 9.5C3.00003 11.0913 3.63217 12.6174 4.75739 13.7426C5.88261 14.8679 7.40873 15.5 9.00003 15.5Z" fill="#C42127"/>
</svg>
