<svg xmlns="http://www.w3.org/2000/svg" width="80.776" height="80.78" viewBox="0 0 80.776 80.78">
  <path id="pen" d="M72.6,20.5a3.53,3.53,0,0,0-1.024-2.506L56.609,3.024a3.58,3.58,0,0,0-5.013,0l-9.99,9.99h0L3.024,51.6A3.53,3.53,0,0,0,2,54.1V69.07A3.53,3.53,0,0,0,5.53,72.6H20.5a3.53,3.53,0,0,0,2.683-1.024L61.551,32.993h0L71.576,23.18a4.2,4.2,0,0,0,.777-1.165,3.53,3.53,0,0,0,0-.847,2.47,2.47,0,0,0,0-.494ZM19.05,65.54H9.06V55.55L44.113,20.5l9.99,9.99ZM59.08,25.51l-9.99-9.99L54.1,10.543,64.057,20.5Z" transform="translate(-2.288 9.382) rotate(-9)" fill="#e1e1e1"/>
</svg>
