<svg width="14" height="12" viewBox="0 0 14 12" fill="none" xmlns="http://www.w3.org/2000/svg">
<path d="M3.29967 0.204713C3.16856 0.0736353 2.99075 0 2.80535 0C2.61995 0 2.44214 0.0736353 2.31102 0.204713L1.40697 1.10876L1.20211 0.903902C1.07024 0.776539 0.893622 0.706065 0.710297 0.707658C0.526972 0.709251 0.351607 0.782784 0.221971 0.912419C0.092336 1.04205 0.018803 1.21742 0.01721 1.40075C0.0156169 1.58407 0.0860912 1.76069 0.213454 1.89256L0.912643 2.59174C1.04376 2.72282 1.22157 2.79646 1.40697 2.79646C1.59237 2.79646 1.77018 2.72282 1.9013 2.59174L3.29967 1.19337C3.43075 1.06225 3.50439 0.88444 3.50439 0.69904C3.50439 0.51364 3.43075 0.33583 3.29967 0.204713ZM13.2953 9.7836H5.60211L5.5203 9.7885C5.34334 9.80955 5.18109 9.89737 5.06671 10.034C4.95233 10.1707 4.89445 10.3459 4.90489 10.5238C4.91534 10.7017 4.99332 10.8689 5.1229 10.9912C5.25249 11.1135 5.4239 11.1818 5.60211 11.182H13.2953L13.3771 11.1778C13.5553 11.1582 13.7192 11.0709 13.8349 10.934C13.9506 10.797 14.0093 10.6208 13.9988 10.4418C13.9883 10.2628 13.9094 10.0947 13.7785 9.97221C13.6476 9.84971 13.4746 9.78219 13.2953 9.7836ZM13.2953 5.59336H5.60211L5.5203 5.59826C5.34334 5.61931 5.18109 5.70713 5.06671 5.84379C4.95233 5.98045 4.89445 6.15563 4.90489 6.33353C4.91534 6.51143 4.99332 6.67863 5.1229 6.80097C5.25249 6.92331 5.4239 6.99154 5.60211 6.99174H13.2953L13.3771 6.98685C13.5541 6.9658 13.7163 6.87797 13.8307 6.74132C13.9451 6.60466 14.0029 6.42948 13.9925 6.25158C13.9821 6.07367 13.9041 5.90647 13.7745 5.78414C13.6449 5.6618 13.4735 5.59356 13.2953 5.59336ZM13.2953 1.39823H5.60211L5.5203 1.40312C5.34334 1.42417 5.18109 1.512 5.06671 1.64866C4.95233 1.78531 4.89445 1.96049 4.90489 2.13839C4.91534 2.3163 4.99332 2.4835 5.1229 2.60583C5.25249 2.72817 5.4239 2.79641 5.60211 2.79661H13.2953L13.3771 2.79171C13.5541 2.77066 13.7163 2.68284 13.8307 2.54618C13.9451 2.40952 14.0029 2.23434 13.9925 2.05644C13.9821 1.87854 13.9041 1.71134 13.7745 1.589C13.6449 1.46666 13.4735 1.39843 13.2953 1.39823ZM3.29967 9.29417C3.16856 9.16309 2.99075 9.08946 2.80535 9.08946C2.61995 9.08946 2.44214 9.16309 2.31102 9.29417L1.40697 10.1982L1.20211 9.99336C1.07024 9.866 0.893622 9.79552 0.710297 9.79712C0.526972 9.79871 0.351607 9.87224 0.221971 10.0019C0.092336 10.1315 0.018803 10.3069 0.01721 10.4902C0.0156169 10.6735 0.0860912 10.8501 0.213454 10.982L0.912643 11.6812C1.04376 11.8123 1.22157 11.8859 1.40697 11.8859C1.59237 11.8859 1.77018 11.8123 1.9013 11.6812L3.29967 10.2828C3.43075 10.1517 3.50439 9.9739 3.50439 9.7885C3.50439 9.6031 3.43075 9.42529 3.29967 9.29417ZM2.31102 4.74944C2.44289 4.62208 2.61951 4.55161 2.80283 4.5532C2.98616 4.55479 3.16152 4.62832 3.29116 4.75796C3.42079 4.8876 3.49433 5.06296 3.49592 5.24629C3.49751 5.42961 3.42704 5.60623 3.29967 5.7381L1.9013 7.13647C1.77018 7.26755 1.59237 7.34119 1.40697 7.34119C1.22157 7.34119 1.04376 7.26755 0.912643 7.13647L0.213454 6.43729C0.146674 6.37279 0.0934088 6.29564 0.056765 6.21033C0.0201212 6.12503 0.000833135 6.03328 2.63991e-05 5.94044C-0.000780337 5.8476 0.0169104 5.75554 0.0520662 5.66961C0.0872221 5.58368 0.139139 5.50561 0.204788 5.43997C0.270437 5.37432 0.348502 5.3224 0.43443 5.28724C0.520358 5.25209 0.612427 5.2344 0.705265 5.2352C0.798103 5.23601 0.88985 5.2553 0.975154 5.29194C1.06046 5.32859 1.13761 5.38185 1.20211 5.44863L1.40697 5.65349L2.31102 4.74944Z" fill="#2F3A56"/>
</svg>
