<svg width="12" height="14" viewBox="0 0 12 14" fill="none" xmlns="http://www.w3.org/2000/svg">
<path d="M9.33333 0.333252V1.66659H11.338C11.7033 1.66659 12 1.96325 12 2.32859V13.0046C11.9998 13.1801 11.93 13.3484 11.8059 13.4725C11.6818 13.5966 11.5135 13.6664 11.338 13.6666H0.662C0.486481 13.6664 0.318201 13.5966 0.19409 13.4725C0.0699794 13.3484 0.00017649 13.1801 0 13.0046V2.32859C0 1.96325 0.296667 1.66659 0.662 1.66659H2.66667V0.333252H9.33333ZM2.66667 2.99992H1.33333V12.3333H10.6667V2.99992H9.33333V4.33325H2.66667V2.99992ZM4 9.66659V10.9999H2.66667V9.66659H4ZM4 7.66659V8.99992H2.66667V7.66659H4ZM4 5.66659V6.99992H2.66667V5.66659H4ZM8 1.66659H4V2.99992H8V1.66659Z" fill="#A5A5A5"/>
</svg>
