<svg xmlns="http://www.w3.org/2000/svg" width="97.767" height="75.65" viewBox="0 0 97.767 75.65">
  <path id="users-alt" d="M51.285,42.3A21.894,21.894,0,0,0,58.85,25.75a22.25,22.25,0,1,0-44.5,0A21.894,21.894,0,0,0,21.915,42.3,35.6,35.6,0,0,0,1,74.7a4.45,4.45,0,0,0,8.9,0,26.7,26.7,0,0,1,53.4,0,4.45,4.45,0,0,0,8.9,0A35.6,35.6,0,0,0,51.285,42.3ZM36.6,39.1A13.35,13.35,0,1,1,49.95,25.75,13.35,13.35,0,0,1,36.6,39.1Zm43.343,1.424A22.25,22.25,0,0,0,63.3,3.5a4.45,4.45,0,0,0,0,8.9,13.327,13.327,0,0,1,6.675,24.876,4.444,4.444,0,0,0-.222,7.565L71.488,46l.578.312A31.15,31.15,0,0,1,89.867,74.7a4.45,4.45,0,0,0,8.9,0A40.05,40.05,0,0,0,79.943,40.524Z" transform="translate(-1 -3.5)" fill="#e1e1e1"/>
</svg>
