<svg id="Icon_ionic-ios-videocam" data-name="Icon ionic-ios-videocam" xmlns="http://www.w3.org/2000/svg" width="270.512" height="154.578" viewBox="0 0 270.512 154.578">
  <path id="Path_10" data-name="Path 10" d="M84.927,10.8a10.316,10.316,0,0,0-5.616,1.63L27.081,45.4a5.166,5.166,0,0,0-2.415,4.348v45.89a5.166,5.166,0,0,0,2.415,4.348l52.231,32.969a10.853,10.853,0,0,0,5.616,1.63h12.56a5.142,5.142,0,0,0,5.193-5.132V15.932A5.18,5.18,0,0,0,97.487,10.8Z" transform="translate(167.833 4.658)" fill="#2c3280"/>
  <path id="Path_11" data-name="Path 11" d="M148.073,163.578H33.347a31.2,31.2,0,0,1-31.1-31.036V40.036A31.143,31.143,0,0,1,33.286,9H148.013a31.143,31.143,0,0,1,31.036,31.036v92.445A31.066,31.066,0,0,1,148.073,163.578Z" transform="translate(-2.25 -9)" fill="#2c3280"/>
</svg>
