<svg xmlns="http://www.w3.org/2000/svg" viewBox="0 0 388.51 556.34"><defs><style>.cls-1{fill:#c32127;}.cls-2{fill:#2c3280;}</style></defs><title>bakti-logo</title><g id="Layer_2" data-name="Layer 2"><g id="Layer_1-2" data-name="Layer 1"><path class="cls-1" d="M182.86,186.69a4.37,4.37,0,0,1,2.29,2.11q17.81,36.42,35.66,72.81c10.35,21,20.92,41.85,31.29,62.82,13.67,27.65,27.18,55.38,40.88,83,14.65,29.57,29.48,59.05,44.14,88.62,9.36,18.87,18.45,37.88,27.9,56.7,1.72,3.43.47,3.5-2.29,3.49q-39.74,0-79.48,0c-2.25,0-3.56-.62-4.6-2.76q-13.92-28.39-28-56.67c-9.46-19-19-37.94-28.44-57-10.66-21.57-21.15-43.21-31.75-64.81-2.17-4.41-4.5-8.75-7.11-13.82-11.59,23.41-22.71,46-33.9,68.47Q128.73,471.38,108,513c-6.34,12.78-12.62,25.6-18.68,38.51-1.61,3.44-3.43,4.88-7.47,4.84-25.32-.22-50.65-.11-76-.11H0Z"/><path class="cls-1" d="M314.36,197.31c-3.83,0-7.72-.4-11.48.1-5.08.67-6.05-1.7-6.27-6.08-1.79-36.83-18.38-66-48-87.06-25.77-18.36-54.92-25-86.21-18.43-47.07,9.8-76.48,38.77-89.45,84.67a74.9,74.9,0,0,0-3.23,23.15c.11,2.77-.68,3.77-3.59,3.71-9.16-.17-18.32-.14-27.49,0-2.92,0-3.59-1-3.47-3.86,2-47,21.16-85.46,58.46-114,34-26.05,72.82-35.33,115.22-28.16A142.79,142.79,0,0,1,289.7,94c24,25,38.34,54.71,41,89.62.32,4.27,2.74,9.66.11,12.54-2.83,3.11-8.5.68-12.91,1.09C316.7,197.4,315.53,197.31,314.36,197.31Z"/><path class="cls-2" d="M257.15,197.31c-4.49,0-9-.11-13.48,0-2.45.08-3.37-.52-3.6-3.24-1.75-21.33-12.26-37.21-30.93-47.39-6.37-3.47-13.39-5.93-20.9-5.8-3.65.06-5.47-1-5.35-5.1.25-8.65.17-17.32,0-26-.06-3.22,1.31-4,4.19-3.85a91.15,91.15,0,0,1,85.53,72.12,78.42,78.42,0,0,1,2,15.79c0,2.61-.83,3.53-3.43,3.44C266.48,197.19,261.81,197.31,257.15,197.31Z"/><path class="cls-2" d="M385.56,197.28a.56.56,0,0,1,.17-.09,5.41,5.41,0,0,0,1.73-1.29,5,5,0,0,0,.8-.93,2.53,2.53,0,0,0,.25-.56,8.79,8.79,0,0,1-.11-1.24A205,205,0,0,0,261.19,7.38c-7.34-3-14.67-6.92-22.71-7.13C221-.21,203.5.12,186,0c-2.44,0-3.15.88-3.1,3.21.14,6.66.19,13.33.08,20,0,2.81,1,3.75,3.78,3.71,16.44-.2,32.34,2.92,48,7.78,33.38,10.35,60.75,29.57,82.35,56.71,23,28.92,35.14,62.17,36.74,99.18.29,6.71.39,6.7,7.29,6.7,7.49,0,15,0,22.49,0C384.27,197.33,384.92,197.28,385.56,197.28Z"/></g></g></svg>