<?xml version="1.0" encoding="UTF-8" standalone="no"?><!DOCTYPE svg PUBLIC "-//W3C//DTD SVG 1.1//EN" "http://www.w3.org/Graphics/SVG/1.1/DTD/svg11.dtd"><svg width="100%" height="100%" viewBox="0 0 2300 2300" version="1.1" xmlns="http://www.w3.org/2000/svg" xmlns:xlink="http://www.w3.org/1999/xlink" xml:space="preserve" xmlns:serif="http://www.serif.com/" style="fill-rule:evenodd;clip-rule:evenodd;stroke-linecap:round;stroke-linejoin:round;stroke-miterlimit:1.5;"><g id="Square-Group" serif:id="Square Group"><rect x="0" y="0" width="2300" height="2300" style="fill:none;"/><g id="Group-2" serif:id="Group 2"><circle cx="1150.54" cy="1150" r="1000" style="fill:none;stroke:#000;stroke-width:4.17px;stroke-dasharray:20.83,20.83,0,0;"/><circle cx="1150.54" cy="1150" r="800" style="fill:none;stroke:#000;stroke-width:4.17px;stroke-dasharray:20.83,20.83,0,0;"/><circle cx="1150.54" cy="1150" r="600" style="fill:none;stroke:#000;stroke-width:4.17px;stroke-dasharray:20.83,20.83,0,0;"/><circle cx="1150.54" cy="1150" r="400" style="fill:none;stroke:#000;stroke-width:4.17px;stroke-dasharray:20.83,20.83,0,0;"/><circle cx="1150.54" cy="1150" r="200" style="fill:none;stroke:#000;stroke-width:4.17px;stroke-dasharray:20.83,20.83,0,0;"/><path d="M1150.54,150l-0,2000" style="fill:none;stroke:#000;stroke-width:4.17px;stroke-dasharray:20.83,20.83,0,0;"/><path d="M1857.65,442.893l-1414.21,1414.21" style="fill:none;stroke:#000;stroke-width:4.17px;stroke-dasharray:20.83,20.83,0,0;"/><path d="M150.541,1150.28l2000,0" style="fill:none;stroke:#000;stroke-width:4.17px;stroke-dasharray:20.83,20.83,0,0;"/><path d="M443.237,443.09l1414.21,1414.21" style="fill:none;stroke:#000;stroke-width:4.17px;stroke-dasharray:20.83,20.83,0,0;"/><text x="1174.67px" y="2111.83px" style="font-family:'ArialMT', 'Arial', sans-serif;font-size:58.333px;fill:#aaa;">100m</text><text x="1099.42px" y="2219.83px" style="font-family:'ArialMT', 'Arial', sans-serif;font-size:58.333px;fill:#231f20;">180°</text><text x="327.815px" y="1926.08px" style="font-family:'ArialMT', 'Arial', sans-serif;font-size:58.333px;fill:#231f20;">225°</text><text x="11.56px" y="1164.2px" style="font-family:'ArialMT', 'Arial', sans-serif;font-size:58.333px;fill:#231f20;">270°</text><text x="2202.34px" y="1164.2px" style="font-family:'ArialMT', 'Arial', sans-serif;font-size:58.333px;fill:#231f20;">90°</text><text x="333.76px" y="419.679px" style="font-family:'ArialMT', 'Arial', sans-serif;font-size:58.333px;fill:#231f20;">315°</text><text x="1133.83px" y="121.922px" style="font-family:'ArialMT', 'Arial', sans-serif;font-size:58.333px;fill:#231f20;">0°</text><text x="1094.6px" y="536.299px" style="font-family:'ArialMT', 'Arial', sans-serif;font-size:58.333px;fill:#231f20;">-1<tspan x="1142.14px 1174.58px " y="536.299px 536.299px ">10</tspan></text><text x="1544.7px" y="722.734px" style="font-family:'ArialMT', 'Arial', sans-serif;font-size:58.333px;fill:#231f20;">-1<tspan x="1592.24px 1624.68px " y="722.734px 722.734px ">10</tspan></text><text x="1731.13px" y="1172.83px" style="font-family:'ArialMT', 'Arial', sans-serif;font-size:58.333px;fill:#231f20;">-1<tspan x="1778.67px 1811.11px " y="1172.83px 1172.83px ">10</tspan></text><text x="1544.7px" y="1622.92px" style="font-family:'ArialMT', 'Arial', sans-serif;font-size:58.333px;fill:#231f20;">-1<tspan x="1592.24px 1624.68px " y="1622.92px 1622.92px ">10</tspan></text><text x="1094.6px" y="1809.36px" style="font-family:'ArialMT', 'Arial', sans-serif;font-size:58.333px;fill:#231f20;">-1<tspan x="1142.14px 1174.58px " y="1809.36px 1809.36px ">10</tspan></text><text x="644.509px" y="1622.92px" style="font-family:'ArialMT', 'Arial', sans-serif;font-size:58.333px;fill:#231f20;">-1<tspan x="692.048px 724.49px " y="1622.92px 1622.92px ">10</tspan></text><text x="458.074px" y="1172.83px" style="font-family:'ArialMT', 'Arial', sans-serif;font-size:58.333px;fill:#231f20;">-1<tspan x="505.613px 538.055px " y="1172.83px 1172.83px ">10</tspan></text><text x="644.509px" y="722.734px" style="font-family:'ArialMT', 'Arial', sans-serif;font-size:58.333px;fill:#231f20;">-1<tspan x="692.048px 724.49px " y="722.734px 722.734px ">10</tspan></text><text x="1849.8px" y="419.679px" style="font-family:'ArialMT', 'Arial', sans-serif;font-size:58.333px;fill:#231f20;">45°</text><text x="1850.82px" y="1926.05px" style="font-family:'ArialMT', 'Arial', sans-serif;font-size:58.333px;fill:#231f20;">135°</text><text x="1376.72px" y="2111.83px" style="font-family:'ArialMT', 'Arial', sans-serif;font-size:58.333px;fill:#aaa;">200m</text><text x="1578.07px" y="2111.83px" style="font-family:'ArialMT', 'Arial', sans-serif;font-size:58.333px;fill:#aaa;">300m</text><text x="1781.13px" y="2111.83px" style="font-family:'ArialMT', 'Arial', sans-serif;font-size:58.333px;fill:#aaa;">400m</text><text x="1982.52px" y="2111.86px" style="font-family:'ArialMT', 'Arial', sans-serif;font-size:58.333px;fill:#aaa;">500m</text><path d="M1360.84,2109.37l-10.297,20.594l-10.297,-20.594l20.594,0Z" style="fill:#afafaf;"/><path d="M1350.54,1150.28l-0,963.207" style="fill:none;stroke:#afafaf;stroke-width:2.92px;"/><path d="M1560.84,2046.07l-10.296,20.594l-10.297,-20.594l20.593,0Z" style="fill:#afafaf;"/><path d="M1550.54,1150l-0,900.193" style="fill:none;stroke:#afafaf;stroke-width:2.92px;"/><path d="M1760.84,1929.41l-10.297,20.594l-10.297,-20.594l20.594,0Z" style="fill:#afafaf;"/><path d="M1750.54,1150.96l0,782.561" style="fill:none;stroke:#afafaf;stroke-width:2.92px;"/><path d="M1960.84,1729.2l-10.296,20.594l-10.297,-20.594l20.593,0Z" style="fill:#afafaf;"/><path d="M1950.54,1150l-0,583.319" style="fill:none;stroke:#afafaf;stroke-width:2.92px;"/></g></g></svg>