<?xml version="1.0" encoding="UTF-8" standalone="no"?><!DOCTYPE svg PUBLIC "-//W3C//DTD SVG 1.1//EN" "http://www.w3.org/Graphics/SVG/1.1/DTD/svg11.dtd"><svg width="100%" height="100%" viewBox="0 0 2274 2832" version="1.1" xmlns="http://www.w3.org/2000/svg" xmlns:xlink="http://www.w3.org/1999/xlink" xml:space="preserve" xmlns:serif="http://www.serif.com/" style="fill-rule:evenodd;clip-rule:evenodd;stroke-linecap:round;stroke-linejoin:round;stroke-miterlimit:1.5;"><g><circle cx="1137.22" cy="1070.55" r="1000" style="fill:none;stroke:#000;stroke-width:4.17px;stroke-dasharray:20.83,20.83,0,0;"/><circle cx="1137.22" cy="1070.55" r="800" style="fill:none;stroke:#000;stroke-width:4.17px;stroke-dasharray:20.83,20.83,0,0;"/><circle cx="1137.22" cy="1070.55" r="600" style="fill:none;stroke:#000;stroke-width:4.17px;stroke-dasharray:20.83,20.83,0,0;"/><circle cx="1137.22" cy="1070.55" r="400" style="fill:none;stroke:#000;stroke-width:4.17px;stroke-dasharray:20.83,20.83,0,0;"/><circle cx="1137.22" cy="1070.55" r="200" style="fill:none;stroke:#000;stroke-width:4.17px;stroke-dasharray:20.83,20.83,0,0;"/><path d="M1137.22,70.546l-0,2000" style="fill:none;stroke:#000;stroke-width:4.17px;stroke-dasharray:20.83,20.83,0,0;"/><path d="M1844.33,363.44l-1414.21,1414.21" style="fill:none;stroke:#000;stroke-width:4.17px;stroke-dasharray:20.83,20.83,0,0;"/><path d="M137.22,1070.83l2000,-0" style="fill:none;stroke:#000;stroke-width:4.17px;stroke-dasharray:20.83,20.83,0,0;"/><path d="M429.916,363.636l1414.21,1414.21" style="fill:none;stroke:#000;stroke-width:4.17px;stroke-dasharray:20.83,20.83,0,0;"/><path d="M1139.3,2198.59l20.834,10.417l-20.834,10.417l0,-20.834Z" style="stroke:#000;stroke-width:4.17px;stroke-linejoin:miter;stroke-miterlimit:10;"/><path d="M1305.97,2193.38l31.25,15.625l-31.25,15.625c7.812,-7.813 7.812,-23.438 -0,-31.25Z"/><path d="M1160.14,2209.01l152.083,-0" style="fill:none;stroke:#000;stroke-width:4.17px;"/><path d="M1139.11,2336.61l20.833,10.416l-20.833,10.417l-0,-20.833Z" style="stroke:#000;stroke-width:4.17px;stroke-linejoin:miter;stroke-miterlimit:10;"/><path d="M1505.97,2331.4l31.25,15.625l-31.25,15.625c7.812,-7.812 7.812,-23.437 -0,-31.25Z"/><path d="M1159.94,2347.03l352.28,0" style="fill:none;stroke:#000;stroke-width:4.17px;"/><path d="M1139.3,2474.63l20.834,10.416l-20.834,10.417l0,-20.833Z" style="stroke:#000;stroke-width:4.17px;stroke-linejoin:miter;stroke-miterlimit:10;"/><path d="M1705.97,2469.42l31.25,15.625l-31.25,15.625c7.812,-7.812 7.812,-23.437 -0,-31.25Z"/><path d="M1160.14,2485.04l552.083,0" style="fill:none;stroke:#000;stroke-width:4.17px;"/><path d="M1139.3,2612.64l20.834,10.417l-20.834,10.416l0,-20.833Z" style="stroke:#000;stroke-width:4.17px;stroke-linejoin:miter;stroke-miterlimit:10;"/><path d="M1905.97,2607.44l31.25,15.625l-31.25,15.625c7.812,-7.813 7.812,-23.438 -0,-31.25Z"/><path d="M1160.14,2623.06l752.083,-0" style="fill:none;stroke:#000;stroke-width:4.17px;"/><path d="M1139.3,2750.66l20.834,10.417l-20.834,10.417l0,-20.834Z" style="stroke:#000;stroke-width:4.17px;stroke-linejoin:miter;stroke-miterlimit:10;"/><path d="M2105.97,2745.45l31.25,15.625l-31.25,15.625c7.812,-7.812 7.812,-23.437 -0,-31.25Z"/><path d="M1160.14,2761.08l952.083,0" style="fill:none;stroke:#000;stroke-width:4.17px;"/><text x="1161.35px" y="2265.05px" style="font-family:'ArialMT', 'Arial', sans-serif;font-size:58.333px;fill:#231f20;">100m</text><text x="1086.1px" y="2127.03px" style="font-family:'ArialMT', 'Arial', sans-serif;font-size:58.333px;fill:#231f20;">180°</text><text x="314.494px" y="1846.63px" style="font-family:'ArialMT', 'Arial', sans-serif;font-size:58.333px;fill:#231f20;">225°</text><text x="-1.761px" y="1084.75px" style="font-family:'ArialMT', 'Arial', sans-serif;font-size:58.333px;fill:#231f20;">270°</text><text x="2189.02px" y="1084.75px" style="font-family:'ArialMT', 'Arial', sans-serif;font-size:58.333px;fill:#231f20;">90°</text><text x="320.439px" y="340.226px" style="font-family:'ArialMT', 'Arial', sans-serif;font-size:58.333px;fill:#231f20;">315°</text><text x="1120.51px" y="42.468px" style="font-family:'ArialMT', 'Arial', sans-serif;font-size:58.333px;fill:#231f20;">0°</text><text x="1081.28px" y="456.845px" style="font-family:'ArialMT', 'Arial', sans-serif;font-size:58.333px;fill:#231f20;">-1<tspan x="1128.82px 1161.26px " y="456.845px 456.845px ">10</tspan></text><text x="1531.38px" y="643.28px" style="font-family:'ArialMT', 'Arial', sans-serif;font-size:58.333px;fill:#231f20;">-1<tspan x="1578.91px 1611.36px " y="643.28px 643.28px ">10</tspan></text><text x="1717.81px" y="1093.37px" style="font-family:'ArialMT', 'Arial', sans-serif;font-size:58.333px;fill:#231f20;">-1<tspan x="1765.35px 1797.79px " y="1093.37px 1093.37px ">10</tspan></text><text x="1531.38px" y="1543.47px" style="font-family:'ArialMT', 'Arial', sans-serif;font-size:58.333px;fill:#231f20;">-1<tspan x="1578.91px 1611.36px " y="1543.47px 1543.47px ">10</tspan></text><text x="1081.28px" y="1729.9px" style="font-family:'ArialMT', 'Arial', sans-serif;font-size:58.333px;fill:#231f20;">-1<tspan x="1128.82px 1161.26px " y="1729.9px 1729.9px ">10</tspan></text><text x="631.188px" y="1543.47px" style="font-family:'ArialMT', 'Arial', sans-serif;font-size:58.333px;fill:#231f20;">-1<tspan x="678.727px 711.169px " y="1543.47px 1543.47px ">10</tspan></text><text x="444.753px" y="1093.37px" style="font-family:'ArialMT', 'Arial', sans-serif;font-size:58.333px;fill:#231f20;">-1<tspan x="492.292px 524.734px " y="1093.37px 1093.37px ">10</tspan></text><text x="631.188px" y="643.28px" style="font-family:'ArialMT', 'Arial', sans-serif;font-size:58.333px;fill:#231f20;">-1<tspan x="678.727px 711.169px " y="643.28px 643.28px ">10</tspan></text><text x="1836.48px" y="340.226px" style="font-family:'ArialMT', 'Arial', sans-serif;font-size:58.333px;fill:#231f20;">45°</text><text x="1837.5px" y="1846.6px" style="font-family:'ArialMT', 'Arial', sans-serif;font-size:58.333px;fill:#231f20;">135°</text><text x="1165.94px" y="2406.38px" style="font-family:'ArialMT', 'Arial', sans-serif;font-size:58.333px;fill:#231f20;">200m</text><text x="1165.26px" y="2547.71px" style="font-family:'ArialMT', 'Arial', sans-serif;font-size:58.333px;fill:#231f20;">300m</text><text x="1166.96px" y="2689.04px" style="font-family:'ArialMT', 'Arial', sans-serif;font-size:58.333px;fill:#231f20;">400m</text><text x="1165.28px" y="2830.37px" style="font-family:'ArialMT', 'Arial', sans-serif;font-size:58.333px;fill:#231f20;">500m</text><path d="M1337.22,1070.83l-0,1135.91" style="fill:none;stroke:#afafaf;stroke-width:2.92px;"/><path d="M1537.22,1070.55l-0,1276.48" style="fill:none;stroke:#afafaf;stroke-width:2.92px;"/><path d="M1737.22,1071.51l0,1413.53" style="fill:none;stroke:#afafaf;stroke-width:2.92px;"/><path d="M1937.22,1070.55l-0,1552.52" style="fill:none;stroke:#afafaf;stroke-width:2.92px;"/><path d="M2137.22,1072.07l-0,1689.01" style="fill:none;stroke:#afafaf;stroke-width:2.92px;"/></g></svg>